<svg id="Layer_1" data-name="Layer 1" xmlns="http://www.w3.org/2000/svg" viewBox="0 0 105.63 105.63"><defs><style>#Layer_1{width:100px;}.cls-1{fill:#034ea2;}.cls-2{fill:#fff;}.cls-3{fill:#72c6ef;}</style></defs><title>Gear-Cloud Spinning Logo</title><path class="cls-1" d="M301.92,249.1a.92.92,0,0,0-.83-.91l-9-.84a.91.91,0,0,1-.81-.73,39.88,39.88,0,0,0-1.18-4.4.91.91,0,0,1,.33-1l7.34-5.21a.92.92,0,0,0,.26-1.21l-5.72-9.9a.92.92,0,0,0-1.18-.38l-8.2,3.76a.9.9,0,0,1-1.05-.22,40.47,40.47,0,0,0-3.22-3.22.9.9,0,0,1-.22-1.05l3.76-8.2a.92.92,0,0,0-.38-1.18l-9.9-5.72a.92.92,0,0,0-1.21.26l-5.21,7.34a.91.91,0,0,1-1,.33,39.94,39.94,0,0,0-4.4-1.18.91.91,0,0,1-.73-.81l-.84-9a.92.92,0,0,0-.91-.83H246.21a.92.92,0,0,0-.91.83l-.84,9a.91.91,0,0,1-.73.81,40,40,0,0,0-4.4,1.18.91.91,0,0,1-1-.33l-5.21-7.34a.92.92,0,0,0-1.21-.26l-9.9,5.72a.92.92,0,0,0-.38,1.18l3.76,8.2a.9.9,0,0,1-.23,1.05A40.44,40.44,0,0,0,221.9,228a.9.9,0,0,1-1.05.22l-8.2-3.76a.92.92,0,0,0-1.18.38l-5.72,9.9A.92.92,0,0,0,206,236l7.34,5.21a.91.91,0,0,1,.33,1,39.88,39.88,0,0,0-1.18,4.4.91.91,0,0,1-.81.73l-9,.84a.92.92,0,0,0-.83.91v11.43a.92.92,0,0,0,.83.91l9,.84a.91.91,0,0,1,.81.73,39.87,39.87,0,0,0,1.18,4.4.91.91,0,0,1-.33,1L206,273.66a.92.92,0,0,0-.26,1.21l5.72,9.9a.92.92,0,0,0,1.18.38l8.2-3.76a.9.9,0,0,1,1.05.22,40.44,40.44,0,0,0,3.22,3.22.9.9,0,0,1,.23,1.05l-3.76,8.2a.92.92,0,0,0,.38,1.18l9.9,5.72a.92.92,0,0,0,1.21-.26l5.21-7.34a.91.91,0,0,1,1-.33,39.93,39.93,0,0,0,4.4,1.18.91.91,0,0,1,.73.81l.84,9a.92.92,0,0,0,.91.83h11.43a.92.92,0,0,0,.91-.83l.84-9a.91.91,0,0,1,.73-.81,39.92,39.92,0,0,0,4.4-1.18.91.91,0,0,1,1,.33l5.21,7.34A.92.92,0,0,0,272,301l9.9-5.72a.92.92,0,0,0,.38-1.18l-3.76-8.2a.9.9,0,0,1,.22-1.05,40.47,40.47,0,0,0,3.22-3.22.9.9,0,0,1,1.05-.22l8.2,3.76a.92.92,0,0,0,1.18-.38l5.72-9.9a.92.92,0,0,0-.26-1.21l-7.34-5.21a.91.91,0,0,1-.33-1,39.87,39.87,0,0,0,1.18-4.4.91.91,0,0,1,.81-.73l9-.84a.92.92,0,0,0,.83-.91Z" transform="translate(-199.18 -199.18)"><animateTransform attributeType="xml" attributeName="transform" type="rotate" from="0 252.38 255.1" to="360 252.38 255.1" dur="4s" additive="sum" repeatCount="indefinite" /></path><path class="cls-2" d="M252,200.44a52.82,52.82,0,0,0-52.82,52.82c0,.53.06,1,.08,1.56h33.95a18.84,18.84,0,0,0,37.42,0h34.1c0-.52.08-1,.08-1.56A52.82,52.82,0,0,0,252,200.44Z" transform="translate(-199.18 -199.18)"/><path class="cls-3" d="M290.15,232.36a.93.93,0,0,1-.68-1.17,20.24,20.24,0,0,0,.19-10.93,20.53,20.53,0,0,0-32.5-11.09.92.92,0,0,1-1.36-.24,20.55,20.55,0,0,0-36.53,18.51.9.9,0,0,1-.73,1.25A19,19,0,0,0,202,247.47a17.52,17.52,0,0,0,.14,2.12.91.91,0,0,0,.91.79h30.13a18.84,18.84,0,0,1,37.42,0H301a.91.91,0,0,0,.91-.78,15.09,15.09,0,0,0,.14-2A15.69,15.69,0,0,0,290.15,232.36Z" transform="translate(-199.18 -199.18)"/></svg>