<?xml version="1.0" encoding="UTF-8" standalone="no"?>
<svg
   xmlns:dc="http://purl.org/dc/elements/1.1/"
   xmlns:cc="http://creativecommons.org/ns#"
   xmlns:rdf="http://www.w3.org/1999/02/22-rdf-syntax-ns#"
   xmlns:svg="http://www.w3.org/2000/svg"
   xmlns="http://www.w3.org/2000/svg"
   viewBox="0 0 630 630"
   height="630"
   width="630"
   xml:space="preserve"
   version="1.1"
   id="svg2"><metadata
     id="metadata8"><rdf:RDF><cc:Work
         rdf:about=""><dc:format>image/svg+xml</dc:format><dc:type
           rdf:resource="http://purl.org/dc/dcmitype/StillImage" /><dc:title></dc:title></cc:Work></rdf:RDF></metadata><defs
     id="defs6"><clipPath
       id="clipPath16"
       clipPathUnits="userSpaceOnUse"><path
         id="path18"
         d="M 0,504 504,504 504,0 0,0 0,504 Z" /></clipPath></defs><g
     transform="matrix(1.25,0,0,-1.25,0,630)"
     id="g10"><g
       id="g12"><g
         clip-path="url(#clipPath16)"
         id="g14"><g
           transform="translate(278.0054,265.3892)"
           id="g20"><path
             id="path22"
             style="fill:#ffffff;fill-opacity:1;fill-rule:nonzero;stroke:none"
             d="m 0,0 c -0.358,0.088 -0.567,0.444 -0.462,0.798 0.678,2.289 0.81,4.811 0.128,7.452 -1.416,5.478 -6.083,9.66 -11.693,10.391 -3.959,0.516 -7.636,-0.633 -10.459,-2.829 -0.302,-0.234 -0.725,-0.159 -0.926,0.166 -2.702,4.351 -7.717,7.114 -13.329,6.563 -6.429,-0.632 -11.679,-5.771 -12.487,-12.181 -0.315,-2.501 0.053,-4.877 0.915,-7.001 0.156,-0.383 -0.086,-0.796 -0.497,-0.85 -6.348,-0.822 -11.255,-6.236 -11.255,-12.809 0,-0.49 0.035,-0.971 0.093,-1.446 0.038,-0.311 0.308,-0.541 0.621,-0.541 l 20.538,0 c 0.75,6.384 6.169,11.34 12.754,11.34 6.585,0 12.005,-4.956 12.754,-11.34 l 20.718,0 c 0.309,0 0.579,0.224 0.62,0.53 0.061,0.45 0.096,0.909 0.096,1.377 C 8.129,-5.358 4.667,-1.152 0,0" /></g><g
           transform="translate(285.4023,250.0811)"
           id="g24"><path
             id="path26"
             style="fill:#ffffff;fill-opacity:1;fill-rule:nonzero;stroke:none"
             d="m 0,0 -20.702,0 c -0.749,-6.384 -6.169,-11.34 -12.754,-11.34 -6.585,0 -12.004,4.956 -12.753,11.34 l -20.702,0 c -0.345,0 -0.626,-0.28 -0.626,-0.625 l 0,-3.271 c 0,-0.323 0.246,-0.593 0.567,-0.623 l 6.109,-0.576 c 0.273,-0.026 0.493,-0.228 0.548,-0.496 0.212,-1.022 0.48,-2.022 0.802,-2.998 0.086,-0.261 -0.004,-0.544 -0.228,-0.703 l -5,-3.552 c -0.263,-0.186 -0.341,-0.543 -0.18,-0.822 l 3.897,-6.749 c 0.161,-0.279 0.508,-0.39 0.802,-0.256 l 5.586,2.56 c 0.248,0.113 0.537,0.049 0.718,-0.154 0.69,-0.772 1.423,-1.505 2.196,-2.195 0.203,-0.182 0.267,-0.471 0.153,-0.719 l -2.559,-5.586 c -0.135,-0.293 -0.024,-0.64 0.255,-0.802 l 6.749,-3.896 c 0.28,-0.162 0.636,-0.084 0.823,0.179 l 3.551,5.001 c 0.159,0.223 0.443,0.314 0.703,0.228 0.977,-0.322 1.977,-0.59 2.998,-0.802 0.269,-0.056 0.471,-0.276 0.497,-0.549 l 0.575,-6.108 c 0.031,-0.321 0.3,-0.567 0.623,-0.567 l 7.793,0 c 0.323,0 0.592,0.246 0.622,0.567 l 0.576,6.108 c 0.026,0.273 0.228,0.493 0.496,0.549 1.022,0.212 2.022,0.48 2.998,0.802 0.261,0.086 0.545,-0.005 0.703,-0.228 l 3.552,-5.001 c 0.187,-0.263 0.543,-0.341 0.822,-0.179 l 6.749,3.896 c 0.28,0.162 0.391,0.509 0.256,0.802 l -2.559,5.586 c -0.114,0.248 -0.05,0.537 0.153,0.719 0.773,0.69 1.505,1.423 2.195,2.195 0.182,0.203 0.471,0.267 0.719,0.154 l 5.586,-2.56 c 0.294,-0.134 0.641,-0.023 0.802,0.256 l 3.897,6.749 c 0.161,0.279 0.083,0.636 -0.18,0.822 l -5,3.552 c -0.224,0.159 -0.314,0.442 -0.228,0.703 0.321,0.976 0.589,1.976 0.801,2.998 0.056,0.268 0.276,0.47 0.549,0.496 l 6.109,0.576 c 0.321,0.03 0.566,0.3 0.566,0.623 l 0,3.271 C 0.625,-0.28 0.345,0 0,0" /></g></g></g></g></svg>