<?xml version="1.0" encoding="utf-8"?>
<!-- Generator: Adobe Illustrator 22.1.0, SVG Export Plug-In . SVG Version: 6.00 Build 0)  -->
<svg version="1.1" xmlns="http://www.w3.org/2000/svg" xmlns:xlink="http://www.w3.org/1999/xlink" x="0px" y="0px"
	 viewBox="0 0 600 600" style="enable-background:new 0 0 600 600;" xml:space="preserve">
<style type="text/css">
	.st0{fill:#002957;}
	.st2{display:inline;}
	.st3{fill:url(#SVGID_1_);}
</style>
<g id="Rotating_Gear">
	<path class="st0" d="M329.2,554c2.4,0,4.4-1.8,4.6-4.2l4.2-45.3c0.2-2.2,1.8-4,4-4.4c7.4-1.5,14.6-3.5,21.7-5.8
		c2.1-0.7,4.4,0,5.6,1.8l26.3,37.1c1.4,1.9,4,2.5,6.1,1.3l50.5-29.2c2.1-1.2,2.9-3.8,1.9-6l-19-41.4c-0.9-2-0.4-4.3,1.2-5.8
		c5.6-5,10.9-10.3,15.9-15.9c1.5-1.6,3.8-2.1,5.8-1.2l41.4,19c2.2,1,4.7,0.2,6-1.9l29.2-50.5c1.2-2.1,0.6-4.7-1.3-6.1l-37.1-26.3
		c-1.8-1.3-2.5-3.6-1.8-5.6c2.4-7.2,4.3-14.4,5.8-21.7c0.5-2.1,2.2-3.8,4.4-4l45.3-4.2c2.4-0.2,4.2-2.2,4.2-4.6v-58.3
		c0-2.4-1.8-4.4-4.2-4.6l-45.3-4.2c-2.2-0.2-4-1.8-4.4-4c-1.5-7.4-3.5-14.6-5.8-21.7c-0.7-2.1,0-4.4,1.8-5.6l37.1-26.3
		c1.9-1.4,2.5-4,1.3-6.1l-29.2-50.5c-1.2-2.1-3.8-2.9-6-1.9l-41.4,19c-2,0.9-4.3,0.4-5.8-1.2c-5-5.6-10.3-10.9-15.9-15.9
		c-1.6-1.5-2.1-3.8-1.2-5.8l19-41.4c1-2.2,0.2-4.7-1.9-6l-50.5-29.2c-2.1-1.2-4.7-0.6-6.1,1.3l-26.3,37.1c-1.3,1.8-3.6,2.5-5.6,1.8
		c-7.2-2.4-14.4-4.3-21.7-5.8c-2.1-0.5-3.8-2.2-4-4.4l-4.2-45.3c-0.2-2.4-2.2-4.2-4.6-4.2l-58.3,0c-2.4,0-4.4,1.8-4.6,4.2L262,95.5
		c-0.2,2.2-1.8,4-4,4.4c-7.4,1.5-14.6,3.5-21.7,5.8c-2.1,0.7-4.4,0-5.6-1.8l-26.3-37.1c-1.4-1.9-4-2.5-6.1-1.3l-50.5,29.2
		c-2.1,1.2-2.9,3.8-1.9,6l19,41.4c0.9,2,0.4,4.3-1.2,5.8c-5.6,5-10.9,10.3-15.9,15.9c-1.5,1.6-3.8,2.1-5.8,1.2l-41.4-19
		c-2.2-1-4.7-0.2-6,1.9l-29.2,50.5c-1.2,2.1-0.6,4.7,1.3,6.1l37.1,26.3c1.8,1.3,2.5,3.6,1.8,5.6c-2.4,7.2-4.3,14.4-5.8,21.7
		c-0.5,2.1-2.2,3.8-4.4,4l-45.3,4.2c-2.4,0.2-4.2,2.2-4.2,4.6l0,58.3c0,2.4,1.8,4.4,4.2,4.6l45.3,4.2c2.2,0.2,4,1.8,4.4,4
		c1.5,7.4,3.5,14.6,5.8,21.7c0.7,2.1,0,4.4-1.8,5.6l-37.1,26.3c-1.9,1.4-2.5,4-1.3,6.1l29.2,50.5c1.2,2.1,3.8,2.9,6,1.9l41.4-19
		c2-0.9,4.3-0.4,5.8,1.2c5,5.6,10.3,10.9,15.9,15.9c1.6,1.5,2.1,3.8,1.2,5.8l-19,41.4c-1,2.2-0.2,4.7,1.9,6l50.5,29.2
		c2.1,1.2,4.7,0.6,6.1-1.3l26.3-37.1c1.3-1.8,3.6-2.5,5.6-1.8c7.2,2.4,14.4,4.3,21.7,5.8c2.1,0.5,3.8,2.2,4,4.4l4.2,45.3
		c0.2,2.4,2.2,4.2,4.6,4.2H329.2z">
	    <animateTransform attributeType="xml" attributeName="transform" type="rotate" from="0 300 300" to="30 300 300" dur="0.35s" additive="sum" repeatCount="indefinite" />
	</path>
</g>
<g id="STATIC" class="st1">
	<g class="st2">
		<path class="st0" d="M300,44c-11.4,0-22.7,0.8-33.8,2.2c-2.4,0.3-4.2,2.4-4.2,4.8v287h287.2c2.3,0,4.3-1.7,4.6-4
			c1.5-11.1,2.3-22.5,2.3-34C556,158.6,441.4,44,300,44z"/>
		<g>
			<linearGradient id="SVGID_1_" gradientUnits="userSpaceOnUse" x1="324.6752" y1="452.4606" x2="324.6752" y2="99.1">
				<stop  offset="0" style="stop-color:#008145"/>
				<stop  offset="0.193" style="stop-color:#00924C"/>
				<stop  offset="0.432" style="stop-color:#3FA554"/>
				<stop  offset="0.6539" style="stop-color:#66B55A"/>
				<stop  offset="0.8501" style="stop-color:#7CC05F"/>
				<stop  offset="1" style="stop-color:#84C661"/>
			</linearGradient>
			<path class="st3" d="M317.6,99.1c-2.3-0.2-4.3,1.7-4.3,4v39.3c0,2.8-2.3,5-5,5h-13c-45.4,1.4-85.9,22.7-112.9,55.4
				c-6.2,7.5-11.7,15.7-16.4,24.3c-4.7,8.6-8.6,17.8-11.5,27.3c-4.5,14.3-6.9,29.5-6.9,45.3v0h0c0,0,0,0,0,0.1
				c0,84.2,68.2,152.5,152.4,152.5v0c0,0,0,0,0.1,0v-0.1c49,0,88.9-39.9,88.9-88.9c0-35-28.5-63.5-63.5-63.5
				c-24.5,0-44.5,20-44.5,44.5c0,16.6,13.5,30.2,30.2,30.2c9.6,0,17.5-6.9,19.2-16c0.4-2.1,2.4-3.4,4.4-3c13.1,2.9,19,19.6,9.2,30.1
				c-8.2,8.8-19.9,14.3-32.8,14.3c-30.6,0-55.6-24.9-55.6-55.6c0-38.5,31.3-69.9,69.9-69.9c22.7,0,43.4,8.6,59.1,22.6
				c2.1,1.9,5,2.9,7.8,2.9l104.6-0.1c2.7,0,4.9-2.2,4.8-4.9C499.4,191.9,419.1,107.9,317.6,99.1z"/>
		</g>
		<path class="st0" d="M425.9,275.3c-15.4,0-27.9-12.5-27.9-27.9c0-15.4,12.5-27.9,27.9-27.9c15.4,0,27.9,12.5,27.9,27.9
			C453.7,262.7,441.2,275.3,425.9,275.3z"/>
	</g>
</g>
</svg>
