<?xml version="1.0" encoding="utf-8"?>
<!-- Generator: Adobe Illustrator 23.0.1, SVG Export Plug-In . SVG Version: 6.00 Build 0)  -->
<svg version="1.1" id="Layer_1" xmlns="http://www.w3.org/2000/svg" xmlns:xlink="http://www.w3.org/1999/xlink" x="0px" y="0px"
	 viewBox="0 0 90 27.39" style="enable-background:new 0 0 90 27.39;" xml:space="preserve">
<style type="text/css">
	.st0{fill:#192C55;}
	.st1{fill:url(#SVGID_1_);}
</style>
<g>
	<g>
		<g>
			<g>
				<path class="st0" d="M10.81,0c-0.13,0-0.24,0.11-0.24,0.24v2.18c-0.01,0.11-0.09,0.19-0.19,0.22c-0.36,0.08-0.72,0.17-1.06,0.28
					c-0.1,0.03-0.21,0-0.28-0.09L7.74,1.02c-0.07-0.09-0.2-0.12-0.3-0.07L4.98,2.38c-0.1,0.06-0.14,0.18-0.09,0.29l0.93,2.02
					c0.04,0.1,0.02,0.21-0.06,0.28C5.48,5.22,5.22,5.48,4.97,5.75C4.9,5.83,4.79,5.86,4.69,5.81L2.67,4.88
					C2.56,4.84,2.44,4.88,2.38,4.98L0.95,7.45c-0.06,0.1-0.03,0.23,0.07,0.3l1.82,1.29c0.09,0.06,0.12,0.17,0.09,0.28
					c-0.12,0.35-0.21,0.71-0.29,1.06c-0.02,0.1-0.11,0.18-0.22,0.19l-2.22,0.21C0.09,10.78,0,10.88,0,11v2.85
					c0,0.12,0.09,0.21,0.21,0.23l2.22,0.21c0.11,0.01,0.19,0.09,0.22,0.19c0.08,0.36,0.17,0.72,0.28,1.06c0.03,0.1,0,0.21-0.09,0.28
					L1.02,17.1c-0.09,0.07-0.12,0.2-0.07,0.3l1.43,2.47c0.06,0.1,0.18,0.14,0.29,0.09l2.02-0.93c0.1-0.04,0.21-0.02,0.28,0.06
					c0.25,0.28,0.51,0.54,0.78,0.78c0.08,0.07,0.1,0.19,0.06,0.28l-0.93,2.02c-0.05,0.11-0.01,0.23,0.09,0.29l2.47,1.43
					c0.1,0.06,0.23,0.03,0.3-0.07l1.29-1.82c0.06-0.09,0.17-0.12,0.28-0.09c0.35,0.12,0.71,0.21,1.06,0.29
					c0.1,0.02,0.18,0.11,0.19,0.22l0.21,2.22c0.01,0.12,0.11,0.21,0.23,0.21h2.85c0.12,0,0.21-0.09,0.23-0.21l0.21-2.22
					c0.01-0.11,0.09-0.19,0.19-0.22c0.36-0.08,0.72-0.17,1.06-0.28c0.1-0.03,0.21,0,0.28,0.09l1.29,1.82
					c0.07,0.09,0.2,0.12,0.3,0.07l2.47-1.43c0.1-0.06,0.14-0.18,0.09-0.29l-0.93-2.02c-0.04-0.1-0.02-0.21,0.06-0.28
					c0.28-0.25,0.54-0.51,0.78-0.78c0.07-0.08,0.19-0.1,0.28-0.06l2.02,0.93c0.11,0.05,0.23,0.01,0.29-0.09l1.43-2.47
					c0.06-0.1,0.03-0.23-0.07-0.3l-1.82-1.29c-0.09-0.06-0.12-0.17-0.09-0.28c0.12-0.35,0.21-0.71,0.29-1.06
					c0.02-0.1,0.11-0.18,0.22-0.19h2.18c0.13,0,0.24-0.11,0.24-0.24v-1.62C24.85,5.56,19.28,0,12.42,0H10.81z"/>
				<g>
					<linearGradient id="SVGID_1_" gradientUnits="userSpaceOnUse" x1="13.6299" y1="19.8798" x2="13.6299" y2="2.5971">
						<stop  offset="0" style="stop-color:#008243"/>
						<stop  offset="0.0478" style="stop-color:#1A8645"/>
						<stop  offset="0.3299" style="stop-color:#509D4F"/>
						<stop  offset="0.5917" style="stop-color:#6DB058"/>
						<stop  offset="0.8231" style="stop-color:#7FBF5F"/>
						<stop  offset="1" style="stop-color:#85C662"/>
					</linearGradient>
					<path class="st1" d="M13.29,2.6c-0.11-0.01-0.21,0.08-0.21,0.2v1.92c0,0.14-0.11,0.25-0.25,0.25h-0.64
						c-2.22,0.07-4.2,1.11-5.52,2.71c-0.3,0.37-0.57,0.77-0.8,1.19C5.64,9.29,5.45,9.73,5.3,10.2c-0.22,0.7-0.34,1.45-0.34,2.22v0h0
						c0,0,0,0,0,0c0,4.12,3.34,7.46,7.46,7.46v0c0,0,0,0,0,0v0c2.4,0,4.35-1.95,4.35-4.35c0-1.71-1.39-3.11-3.11-3.11
						c-1.2,0-2.17,0.98-2.17,2.17c0,0.81,0.66,1.48,1.48,1.48c0.47,0,0.86-0.34,0.94-0.78c0.02-0.1,0.12-0.17,0.22-0.14
						c0.64,0.14,0.93,0.96,0.45,1.47c-0.4,0.43-0.97,0.7-1.6,0.7c-1.5,0-2.72-1.22-2.72-2.72c0-1.88,1.53-3.42,3.42-3.42
						c1.11,0,2.12,0.42,2.89,1.11c0.1,0.09,0.24,0.14,0.38,0.14l5.12,0c0.13,0,0.24-0.11,0.23-0.24C22.17,7.14,18.25,3.03,13.29,2.6
						z"/>
				</g>
				<path class="st0" d="M18.58,11.21c-0.75,0-1.36-0.61-1.37-1.36c0-0.75,0.61-1.36,1.36-1.37c0.75,0,1.36,0.61,1.37,1.36
					C19.94,10.6,19.33,11.21,18.58,11.21z"/>
			</g>
			<g>
				<path class="st0" d="M42.81,6.18l0.01,10.38l-2.53,0l-0.01-6.49l-2.24,6.49l-2.19,0l-2.27-6.5l0.01,6.51l-2.53,0L31.06,6.19
					l3.09,0l2.83,7.23l2.76-7.24L42.81,6.18z"/>
				<path class="st0" d="M49.95,8.71c0.65,0.34,1.15,0.83,1.52,1.47c0.37,0.64,0.56,1.39,0.56,2.25c0,0.86-0.18,1.61-0.55,2.25
					c-0.37,0.64-0.88,1.13-1.52,1.47c-0.65,0.34-1.38,0.51-2.2,0.51c-0.82,0-1.55-0.17-2.2-0.51c-0.65-0.34-1.16-0.83-1.53-1.47
					c-0.37-0.64-0.56-1.39-0.56-2.25c0-0.86,0.18-1.61,0.55-2.25c0.37-0.64,0.88-1.13,1.53-1.47c0.65-0.34,1.38-0.51,2.2-0.51
					C48.58,8.2,49.31,8.37,49.95,8.71z M46.54,10.91c-0.33,0.35-0.49,0.86-0.49,1.52c0,0.66,0.17,1.16,0.5,1.51
					c0.33,0.34,0.74,0.52,1.22,0.52c0.48,0,0.89-0.17,1.21-0.52c0.32-0.35,0.49-0.85,0.49-1.51c0-0.66-0.16-1.17-0.49-1.52
					c-0.33-0.35-0.73-0.52-1.21-0.52C47.28,10.39,46.87,10.56,46.54,10.91z"/>
				<path class="st0" d="M56.73,8.65c0.5-0.3,1.04-0.44,1.62-0.45l0,2.71l-0.72,0c-0.67,0-1.19,0.14-1.56,0.43
					c-0.37,0.29-0.55,0.77-0.55,1.45l0,3.76l-2.53,0L52.98,8.3l2.53,0l0,1.55C55.82,9.34,56.23,8.94,56.73,8.65z"/>
				<path class="st0" d="M66.01,8.69c0.54,0.34,0.96,0.83,1.27,1.46c0.31,0.64,0.47,1.39,0.47,2.25c0,0.86-0.15,1.61-0.46,2.25
					c-0.31,0.64-0.73,1.13-1.27,1.47c-0.54,0.34-1.15,0.51-1.83,0.51c-0.63,0-1.17-0.14-1.63-0.43c-0.45-0.29-0.78-0.67-0.99-1.17
					l0.01,5.43l-2.53,0L59.04,8.29l2.53,0l0,1.49c0.21-0.49,0.54-0.88,0.99-1.17c0.45-0.29,1-0.43,1.63-0.43
					C64.87,8.18,65.48,8.35,66.01,8.69z M62.07,10.94c-0.34,0.36-0.51,0.85-0.51,1.47c0,0.61,0.17,1.1,0.51,1.46
					c0.34,0.36,0.78,0.55,1.31,0.55c0.54,0,0.98-0.18,1.31-0.53c0.33-0.36,0.49-0.85,0.49-1.48s-0.17-1.12-0.5-1.48
					c-0.33-0.35-0.77-0.53-1.31-0.53C62.84,10.4,62.41,10.58,62.07,10.94z"/>
				<path class="st0" d="M76.19,9.13c0.56,0.63,0.84,1.5,0.84,2.6l0.01,4.79l-2.53,0l-0.01-4.5c0-0.55-0.15-0.98-0.44-1.29
					c-0.29-0.31-0.68-0.47-1.16-0.46c-0.51,0-0.92,0.16-1.22,0.49c-0.3,0.33-0.45,0.79-0.45,1.39l0.01,4.38l-2.53,0L68.69,5.59
					l2.53,0l0,4.2c0.24-0.49,0.59-0.88,1.06-1.17c0.47-0.29,1.02-0.43,1.65-0.43C74.88,8.18,75.63,8.5,76.19,9.13z"/>
				<path class="st0" d="M80.85,8.26l0.01,8.25l-2.53,0l-0.01-8.25l1.23,0L80.85,8.26z"/>
				<path class="st0" d="M88.63,9.03c0.72,0.59,1.17,1.39,1.36,2.42l-2.68,0c-0.08-0.35-0.24-0.63-0.49-0.83
					c-0.25-0.2-0.56-0.3-0.93-0.29c-0.44,0-0.81,0.18-1.09,0.53c-0.29,0.35-0.43,0.86-0.43,1.53c0,0.67,0.14,1.18,0.43,1.53
					c0.29,0.35,0.65,0.52,1.1,0.52c0.37,0,0.69-0.1,0.93-0.3c0.25-0.2,0.41-0.47,0.49-0.83l2.68,0c-0.19,1.03-0.64,1.83-1.36,2.42
					c-0.72,0.59-1.61,0.88-2.68,0.88c-0.81,0-1.53-0.17-2.15-0.51c-0.63-0.34-1.12-0.83-1.47-1.47c-0.36-0.64-0.53-1.39-0.53-2.25
					c0-0.87,0.17-1.62,0.52-2.26c0.35-0.64,0.84-1.13,1.47-1.47s1.35-0.51,2.16-0.51C87.02,8.15,87.91,8.44,88.63,9.03z"/>
				<path class="st0" d="M79.63,7.36c-0.75,0-1.37-0.61-1.37-1.36c0-0.75,0.61-1.36,1.36-1.37c0.75,0,1.36,0.61,1.37,1.36
					S80.39,7.36,79.63,7.36z"/>
			</g>
		</g>
	</g>
	<g>
		<path class="st0" d="M34.72,24.14c0,0.46-0.08,0.84-0.24,1.15s-0.4,0.53-0.71,0.68l0.93,1.04h-1.05l-0.71-0.87h-0.06
			c-0.59,0-1.05-0.17-1.37-0.52c-0.32-0.34-0.48-0.84-0.48-1.48s0.16-1.14,0.48-1.48c0.32-0.34,0.78-0.51,1.37-0.51
			s1.05,0.17,1.37,0.51C34.56,23.01,34.72,23.5,34.72,24.14z M31.9,24.14c0,0.43,0.08,0.76,0.25,0.98s0.41,0.33,0.74,0.33
			c0.66,0,0.98-0.44,0.98-1.31c0-0.87-0.33-1.31-0.98-1.31c-0.33,0-0.57,0.11-0.74,0.33S31.9,23.71,31.9,24.14z"/>
		<path class="st0" d="M37.56,26.09l-0.11-0.38h-0.04c-0.09,0.14-0.21,0.24-0.37,0.32s-0.34,0.11-0.54,0.11
			c-0.35,0-0.61-0.09-0.79-0.28c-0.18-0.19-0.27-0.45-0.27-0.8v-1.93h0.81v1.73c0,0.21,0.04,0.37,0.11,0.48
			c0.08,0.11,0.2,0.16,0.36,0.16c0.23,0,0.39-0.08,0.49-0.23c0.1-0.15,0.15-0.4,0.15-0.75v-1.39h0.81v2.96H37.56z"/>
		<path class="st0" d="M38.99,22.36c0-0.26,0.15-0.39,0.44-0.39s0.44,0.13,0.44,0.39c0,0.12-0.04,0.22-0.11,0.29
			c-0.07,0.07-0.18,0.11-0.33,0.11C39.14,22.76,38.99,22.62,38.99,22.36z M39.83,26.09h-0.81v-2.96h0.81V26.09z"/>
		<path class="st0" d="M41.88,26.14c-0.92,0-1.38-0.51-1.38-1.52c0-0.5,0.13-0.89,0.38-1.15c0.25-0.27,0.61-0.4,1.08-0.4
			c0.34,0,0.65,0.07,0.92,0.2l-0.24,0.62c-0.13-0.05-0.25-0.09-0.35-0.13c-0.11-0.03-0.22-0.05-0.33-0.05c-0.42,0-0.63,0.3-0.63,0.9
			c0,0.58,0.21,0.87,0.63,0.87c0.16,0,0.3-0.02,0.43-0.06c0.13-0.04,0.27-0.11,0.4-0.2v0.69c-0.13,0.08-0.26,0.14-0.4,0.17
			C42.25,26.12,42.09,26.14,41.88,26.14z"/>
		<path class="st0" d="M44.25,24.47l0.35-0.45l0.83-0.9h0.91l-1.18,1.28l1.25,1.68h-0.93l-0.85-1.2l-0.35,0.28v0.92h-0.81v-4.12
			h0.81v1.84l-0.04,0.67H44.25z"/>
		<path class="st0" d="M49.18,25.01c0,0.35-0.13,0.62-0.38,0.83c-0.25,0.2-0.6,0.3-1.05,0.3c-0.41,0-0.78-0.08-1.1-0.23v-0.76
			c0.26,0.12,0.48,0.2,0.66,0.25c0.18,0.05,0.35,0.07,0.5,0.07c0.18,0,0.32-0.03,0.41-0.1c0.1-0.07,0.14-0.17,0.14-0.31
			c0-0.08-0.02-0.14-0.06-0.2c-0.04-0.06-0.1-0.12-0.19-0.17s-0.25-0.14-0.5-0.26c-0.24-0.11-0.41-0.22-0.53-0.32
			c-0.12-0.1-0.21-0.22-0.28-0.36s-0.11-0.29-0.11-0.48c0-0.34,0.12-0.61,0.35-0.81c0.23-0.2,0.55-0.29,0.96-0.29
			c0.2,0,0.39,0.02,0.58,0.07s0.37,0.11,0.57,0.2l-0.27,0.64c-0.21-0.08-0.38-0.14-0.51-0.18c-0.13-0.03-0.27-0.05-0.4-0.05
			c-0.16,0-0.27,0.04-0.36,0.11s-0.12,0.17-0.12,0.28c0,0.07,0.02,0.14,0.05,0.19s0.09,0.11,0.16,0.16
			c0.07,0.05,0.25,0.14,0.52,0.27c0.36,0.17,0.61,0.35,0.74,0.52S49.18,24.76,49.18,25.01z"/>
		<path class="st0" d="M51.07,25.49c0.14,0,0.31-0.03,0.51-0.09V26c-0.2,0.09-0.45,0.13-0.74,0.13c-0.32,0-0.56-0.08-0.71-0.25
			c-0.15-0.16-0.22-0.41-0.22-0.73v-1.43h-0.39v-0.34l0.44-0.27l0.23-0.62h0.52v0.63h0.83v0.61h-0.83v1.43c0,0.11,0.03,0.2,0.1,0.25
			S50.96,25.49,51.07,25.49z"/>
		<path class="st0" d="M53.83,23.07c0.11,0,0.2,0.01,0.27,0.02l-0.06,0.76c-0.07-0.02-0.15-0.03-0.24-0.03
			c-0.26,0-0.46,0.07-0.6,0.2c-0.14,0.13-0.22,0.32-0.22,0.56v1.51h-0.81v-2.96h0.61l0.12,0.5h0.04c0.09-0.17,0.22-0.3,0.37-0.4
			S53.64,23.07,53.83,23.07z"/>
		<path class="st0" d="M54.6,22.36c0-0.26,0.15-0.39,0.44-0.39s0.44,0.13,0.44,0.39c0,0.12-0.04,0.22-0.11,0.29
			c-0.07,0.07-0.18,0.11-0.33,0.11C54.75,22.76,54.6,22.62,54.6,22.36z M55.45,26.09h-0.81v-2.96h0.81V26.09z"/>
		<path class="st0" d="M57.92,26.14c-0.35,0-0.62-0.13-0.82-0.38h-0.04c0.03,0.25,0.04,0.39,0.04,0.43v1.2h-0.81v-4.26h0.66
			l0.11,0.38h0.04c0.19-0.29,0.47-0.44,0.84-0.44c0.35,0,0.62,0.13,0.82,0.41c0.2,0.27,0.3,0.65,0.3,1.12
			c0,0.32-0.05,0.59-0.14,0.82c-0.09,0.23-0.22,0.41-0.4,0.53C58.35,26.08,58.15,26.14,57.92,26.14z M57.68,23.71
			c-0.2,0-0.35,0.06-0.44,0.18s-0.14,0.33-0.14,0.61v0.09c0,0.32,0.05,0.55,0.14,0.68c0.09,0.14,0.24,0.21,0.45,0.21
			c0.36,0,0.54-0.3,0.54-0.89c0-0.29-0.04-0.51-0.13-0.66C58.01,23.79,57.87,23.71,57.68,23.71z"/>
	</g>
</g>
</svg>
