<?xml version="1.0" encoding="utf-8"?>
<!-- Generator: Adobe Illustrator 22.1.0, SVG Export Plug-In . SVG Version: 6.00 Build 0)  -->
<svg version="1.1" id="Layer_1" xmlns="http://www.w3.org/2000/svg" xmlns:xlink="http://www.w3.org/1999/xlink" x="0px" y="0px"
	 viewBox="0 0 209 58" style="enable-background:new 0 0 209 58;" xml:space="preserve">
<g>
	<g>
		<path d="M99.5,14.5v24.1h-5.9V23.5l-5.2,15.1h-5.1L78,23.5v15.1h-5.9V14.5h7.2l6.6,16.8l6.4-16.8H99.5z"/>
		<path d="M116,20.4c1.5,0.8,2.7,1.9,3.5,3.4c0.9,1.5,1.3,3.2,1.3,5.2s-0.4,3.7-1.3,5.2s-2,2.6-3.5,3.4s-3.2,1.2-5.1,1.2
			s-3.6-0.4-5.1-1.2c-1.5-0.8-2.7-1.9-3.6-3.4c-0.9-1.5-1.3-3.2-1.3-5.2s0.4-3.7,1.3-5.2c0.9-1.5,2-2.6,3.5-3.4
			c1.5-0.8,3.2-1.2,5.1-1.2C112.7,19.2,114.5,19.6,116,20.4z M108.1,25.5c-0.8,0.8-1.1,2-1.1,3.5s0.4,2.7,1.2,3.5
			c0.8,0.8,1.7,1.2,2.8,1.2s2.1-0.4,2.8-1.2c0.8-0.8,1.1-2,1.1-3.5s-0.4-2.7-1.1-3.5c-0.8-0.8-1.7-1.2-2.8-1.2
			C109.8,24.3,108.9,24.7,108.1,25.5z"/>
		<path d="M131.7,20.2c1.2-0.7,2.4-1,3.8-1v6.3h-1.7c-1.6,0-2.8,0.3-3.6,1c-0.9,0.7-1.3,1.8-1.3,3.4v8.7H123V19.5h5.9v3.6
			C129.6,21.9,130.6,20.9,131.7,20.2z"/>
		<path d="M153.2,20.3c1.2,0.8,2.2,1.9,3,3.4c0.7,1.5,1.1,3.2,1.1,5.2s-0.4,3.7-1.1,5.2c-0.7,1.5-1.7,2.6-2.9,3.4
			c-1.2,0.8-2.7,1.2-4.2,1.2s-2.7-0.3-3.8-1c-1.1-0.7-1.8-1.6-2.3-2.7v12.6h-5.9V19.3h5.9v3.5c0.5-1.1,1.2-2,2.3-2.7
			c1.1-0.7,2.3-1,3.8-1C150.6,19.2,152,19.6,153.2,20.3z M144.1,25.6c-0.8,0.8-1.2,2-1.2,3.4s0.4,2.5,1.2,3.4c0.8,0.8,1.8,1.3,3,1.3
			c1.3,0,2.3-0.4,3-1.2c0.8-0.8,1.1-2,1.1-3.4s-0.4-2.6-1.2-3.4s-1.8-1.2-3-1.2C145.9,24.3,144.9,24.7,144.1,25.6z"/>
		<path d="M176.8,21.4c1.3,1.5,1.9,3.5,1.9,6v11.1h-5.9V28.1c0-1.3-0.3-2.3-1-3s-1.6-1.1-2.7-1.1c-1.2,0-2.1,0.4-2.8,1.1
			c-0.7,0.8-1,1.8-1,3.2v10.1h-5.9V13h5.9v9.7c0.5-1.1,1.4-2,2.4-2.7c1.1-0.7,2.4-1,3.8-1C173.8,19.2,175.5,19.9,176.8,21.4z"/>
		<path d="M187.6,19.4v19.1h-5.9V19.4h2.9H187.6z"/>
		<path d="M205.7,21.1c1.7,1.4,2.7,3.2,3.2,5.6h-6.2c-0.2-0.8-0.6-1.5-1.1-1.9c-0.6-0.5-1.3-0.7-2.2-0.7c-1,0-1.9,0.4-2.5,1.2
			c-0.7,0.8-1,2-1,3.6s0.3,2.7,1,3.5c0.7,0.8,1.5,1.2,2.5,1.2c0.9,0,1.6-0.2,2.2-0.7c0.6-0.5,0.9-1.1,1.1-1.9h6.2
			c-0.4,2.4-1.5,4.2-3.1,5.6c-1.7,1.4-3.7,2-6.2,2c-1.9,0-3.5-0.4-5-1.2c-1.5-0.8-2.6-1.9-3.4-3.4s-1.2-3.2-1.2-5.2s0.4-3.8,1.2-5.2
			c0.8-1.5,1.9-2.6,3.4-3.4c1.5-0.8,3.1-1.2,5-1.2C201.9,19.1,204,19.8,205.7,21.1z"/>
		<path d="M184.8,17.3c-1.7,0-3.2-1.4-3.2-3.2c0-1.7,1.4-3.2,3.2-3.2c1.7,0,3.2,1.4,3.2,3.2C188,15.8,186.6,17.3,184.8,17.3z"/>
	</g>
	<g>
		<g>
			<path d="M29,0.2L29,0.2L29,0.2z"/>
			<polygon points="57.8,29 57.8,29 57.8,29 57.8,29 			"/>
		</g>
		<g>
			<polygon points="57.8,29 57.8,29 57.8,29 57.8,29 			"/>
			<path d="M43.3,19.9c-1.7,0-3.2,1.4-3.2,3.2c0,1.7,1.4,3.2,3.2,3.2c1.7,0,3.2-1.4,3.2-3.2C46.4,21.3,45,19.9,43.3,19.9z"/>
			<path d="M57.8,29L57.8,29L57.8,29L57.8,29L57.8,29C57.8,13.1,44.9,0.2,29,0.2h-3.8c-0.3,0-0.5,0.2-0.5,0.5c0,0,0,3.8,0,5.1
				c0,0.2-0.2,0.4-0.4,0.5c-0.9,0.2-1.7,0.4-2.5,0.7c-0.2,0.1-0.4,0-0.6-0.2l-3-4.2c-0.2-0.2-0.5-0.3-0.7-0.1l-5.7,3.3
				c-0.2,0.1-0.3,0.4-0.2,0.7l2.2,4.7c0.1,0.2,0,0.5-0.1,0.6c-0.7,0.6-1.3,1.2-1.9,1.8c-0.2,0.2-0.4,0.2-0.6,0.1l-4.7-2.2
				c-0.2-0.1-0.5,0-0.7,0.2l-3.3,5.7c-0.2,0.2-0.1,0.6,0.1,0.7l4.2,3C7,21.2,7.1,21.5,7,21.7c-0.3,0.8-0.5,1.7-0.7,2.5
				c0,0.2-0.2,0.4-0.5,0.4l-5.2,0.5c-0.3,0-0.5,0.3-0.5,0.5v3.3l0,0v3.3c0,0.3,0.2,0.5,0.5,0.5l5.2,0.5c0.2,0,0.4,0.2,0.5,0.4
				c0.2,0.9,0.4,1.7,0.7,2.5c0.1,0.2,0,0.4-0.2,0.6l-4.2,3c-0.2,0.2-0.3,0.5-0.1,0.7l3.3,5.7c0.1,0.2,0.4,0.3,0.7,0.2l4.7-2.2
				c0.2-0.1,0.5,0,0.6,0.1c0.6,0.7,1.2,1.3,1.8,1.9c0.2,0.2,0.2,0.4,0.1,0.6l-2.2,4.7c-0.1,0.2,0,0.5,0.2,0.7l5.7,3.3
				c0.2,0.2,0.6,0.1,0.7-0.1l3-4.2c0.1-0.2,0.4-0.3,0.6-0.2c0.8,0.3,1.7,0.5,2.5,0.7c0.2,0,0.4,0.2,0.4,0.5l0.5,5.2
				c0,0.3,0.3,0.5,0.5,0.5h6.6c0.3,0,0.5-0.2,0.5-0.5l0.5-5.2c0-0.2,0.2-0.4,0.4-0.5c0.9-0.2,1.7-0.4,2.5-0.7c0.2-0.1,0.4,0,0.6,0.2
				l3,4.2c0.2,0.2,0.5,0.3,0.7,0.1l5.7-3.3c0.2-0.1,0.3-0.4,0.2-0.7l-2.2-4.7c-0.1-0.2,0-0.5,0.1-0.6c0.7-0.6,1.3-1.2,1.9-1.8
				c0.2-0.2,0.4-0.2,0.6-0.1l4.7,2.2c0.2,0.1,0.5,0,0.7-0.2l3.3-5.7c0.2-0.2,0.1-0.6-0.1-0.7l-4.2-3c-0.2-0.1-0.3-0.4-0.2-0.6
				c0.3-0.8,0.5-1.7,0.7-2.5c0-0.2,0.2-0.4,0.5-0.4h5.1c0.3-0.1,0.5-0.2,0.5-0.5L57.8,29L57.8,29z M51.4,29H39.5
				c-0.3,0-0.6-0.1-0.9-0.3c-1.8-1.6-4.1-2.6-6.7-2.6c-4.4,0-7.9,3.6-7.9,7.9c0,3.5,2.8,6.3,6.3,6.3c1.5,0,2.8-0.6,3.7-1.6
				c1.1-1.2,0.4-3.1-1-3.4c-0.2-0.1-0.5,0.1-0.5,0.3c-0.2,1-1.1,1.8-2.2,1.8c-1.9,0-3.4-1.5-3.4-3.4c0-2.8,2.3-5,5-5
				c4,0,7.2,3.2,7.2,7.2c0,5.6-4.5,10.1-10.1,10.1l0,0l0,0l0,0c-9.5,0-17.3-7.7-17.3-17.3l0,0l0,0l0,0c0-1.8,0.3-3.5,0.8-5.1
				c0.3-1.1,0.8-2.1,1.3-3.1s1.2-1.9,1.9-2.8c3.1-3.7,7.7-6.1,12.8-6.3H30c0.3,0,0.6-0.3,0.6-0.6V6.6c0-0.3,0.2-0.5,0.5-0.5
				c11.5,1,20.6,10.5,20.9,22.2C51.9,28.7,51.7,29,51.4,29z"/>
		</g>
	</g>
</g>
</svg>
