<?xml version="1.0" encoding="utf-8"?>
<!-- Generator: Adobe Illustrator 22.1.0, SVG Export Plug-In . SVG Version: 6.00 Build 0)  -->
<svg version="1.1" id="Layer_1" xmlns="http://www.w3.org/2000/svg" xmlns:xlink="http://www.w3.org/1999/xlink" x="0px" y="0px"
	 viewBox="0 0 208 58" style="enable-background:new 0 0 208 58;" xml:space="preserve">
<style type="text/css">
	.st0{fill:#002957;}
	.st1{fill:none;}
	.st2{fill:url(#SVGID_1_);}
</style>
<g>
	<g>
		<path class="st0" d="M99,15v24h-5V23.9L88.7,39h-5.2L78,23.9V39h-6V15h7.1l6.5,16.7L91.9,15H99z"/>
		<path class="st0" d="M115.8,20.4c1.5,0.8,2.7,1.9,3.5,3.4c0.9,1.5,1.3,3.2,1.3,5.2s-0.4,3.7-1.3,5.2s-2,2.6-3.5,3.4
			s-3.2,1.2-5.1,1.2s-3.6-0.4-5.1-1.2c-1.5-0.8-2.7-1.9-3.6-3.4c-0.9-1.5-1.3-3.2-1.3-5.2s0.4-3.7,1.3-5.2c0.9-1.5,2-2.6,3.5-3.4
			c1.5-0.8,3.2-1.2,5.1-1.2C112.5,19.2,114.3,19.6,115.8,20.4z M107.9,25.5c-0.8,0.8-1.1,2-1.1,3.5s0.4,2.7,1.2,3.5
			c0.8,0.8,1.7,1.2,2.8,1.2s2.1-0.4,2.8-1.2c0.8-0.8,1.1-2,1.1-3.5s-0.4-2.7-1.1-3.5c-0.8-0.8-1.7-1.2-2.8-1.2
			C109.6,24.3,108.7,24.7,107.9,25.5z"/>
		<path class="st0" d="M131,20.7c1.3-0.7,2.5-1,4-1V26h-1.8c-1.7,0-3,0.3-3.8,1c-1,0.7-1.4,1.8-1.4,3.4V39h-5V20h5v3.6
			C128.7,22.4,129.8,21.4,131,20.7z"/>
		<path class="st0" d="M153.4,20c1.2,0.8,2.2,1.9,3.1,3.4c0.7,1.5,1.1,3.2,1.1,5.1s-0.4,3.7-1.1,5.1c-0.7,1.5-1.7,2.6-2.9,3.4
			c-1.2,0.8-2.7,1.2-4.3,1.2s-2.7-0.3-3.9-1c-1.1-0.7-1.8-1.6-2.3-2.7V47h-6V19h6v3.5c0.5-1.1,1.2-2,2.3-2.7c1.1-0.7,2.3-1,3.9-1
			C150.7,18.9,152.2,19.3,153.4,20z M143.9,25.6c-0.8,0.8-1.2,2-1.2,3.4s0.4,2.5,1.2,3.4c0.8,0.8,1.8,1.3,3,1.3c1.3,0,2.3-0.4,3-1.2
			c0.8-0.8,1.1-2,1.1-3.4s-0.4-2.6-1.2-3.4s-1.8-1.2-3-1.2C145.7,24.3,144.7,24.7,143.9,25.6z"/>
		<path class="st0" d="M176.2,21.6c1.3,1.5,1.8,3.6,1.8,6.1V39h-5V28.6c0-1.3-0.3-2.3-1.1-3s-1.7-1.1-2.9-1.1c-1.3,0-2.2,0.4-3,1.1
			c-0.7,0.8-1.1,1.8-1.1,3.2V38h-6V13h6v9.9c0.5-1.1,1.4-2,2.3-2.8c1.1-0.7,2.3-1,3.7-1C173.2,19.3,174.9,20,176.2,21.6z"/>
		<path class="st0" d="M187,19v19h-6V19h2.9H187z"/>
		<path class="st0" d="M205.1,21.8c1.6,1.3,2.5,3,3,5.2h-5.8c-0.2-0.7-0.6-1.4-1-1.8c-0.6-0.5-1.2-0.7-2-0.7c-0.9,0-1.8,0.4-2.3,1.1
			c-0.7,0.7-0.9,1.9-0.9,3.3c0,1.5,0.3,2.5,0.9,3.3c0.7,0.7,1.4,1.1,2.3,1.1c0.8,0,1.5-0.2,2-0.7c0.6-0.5,0.8-1,1-1.8h5.8
			c-0.4,2.2-1.4,3.9-2.9,5.2c-1.6,1.3-3.4,1.9-5.8,1.9c-2,0-3.7-0.5-5.2-1.4c-0.8-0.5-1.5-1.1-2-1.8c-1.2-1.6-1.7-3.5-1.7-5.8
			c0-1.9,0.4-3.5,1.1-4.8c0.7-1.4,1.8-2.4,3.2-3.2c1.4-0.7,2.9-1.1,4.7-1.1C201.5,19.9,203.5,20.6,205.1,21.8z"/>
		<path class="st0" d="M184.6,17.3c-1.7,0-3.2-1.4-3.2-3.2c0-1.7,1.4-3.2,3.2-3.2c1.7,0,3.2,1.4,3.2,3.2
			C187.8,15.8,186.4,17.3,184.6,17.3z"/>
	</g>
	<g>
		<g>
			<path class="st1" d="M28.8,0.2L28.8,0.2L28.8,0.2z"/>
			<path class="st0" d="M58,28.7L58,28.7L58,28.7L58,28.7L58,28.7C58,12.9,45.1,0,29.3,0l0,0h-3.8C25.2,0,25,0.2,25,0.5
				c0,0,0,3.1,0,4.4c0,0.2-0.2,0.4-0.4,0.5c-0.9,0.2-1.7,0.4-2.5,0.7c-0.2,0.1-0.4,0-0.6-0.2l-3-4.3c-0.2-0.2-0.5-0.3-0.7-0.1
				l-5.8,3.4c-0.2,0.1-0.3,0.4-0.2,0.7l2.2,4.8c0.1,0.2,0,0.5-0.1,0.6c-0.7,0.6-1.3,1.2-1.9,1.8c-0.2,0.2-0.4,0.2-0.6,0.1l-4.8-2.2
				c-0.2-0.1-0.5,0-0.7,0.2l-3.4,5.8c-0.2,0.2-0.1,0.6,0.1,0.7l4.3,3.1C7,20.7,7.1,21,7,21.2c-0.3,0.8-0.5,1.7-0.7,2.6
				c0,0.2-0.2,0.4-0.5,0.4l-5.3,0.5c-0.3,0-0.5,0.3-0.5,0.5v3.4l0,0v3.4c0,0.3,0.2,0.5,0.5,0.5l5.3,0.5c0.2,0,0.4,0.2,0.5,0.4
				C6.5,34.2,6.7,35,7,35.9c0.1,0.2,0,0.4-0.2,0.6l-4.3,3.1c-0.2,0.2-0.3,0.5-0.1,0.7l3.4,5.8c0.1,0.2,0.4,0.3,0.7,0.2l4.8-2.2
				c0.2-0.1,0.5,0,0.6,0.1c0.6,0.7,1.2,1.3,1.8,1.9c0.2,0.2,0.2,0.4,0.1,0.6l-2.2,4.8c-0.1,0.2,0,0.5,0.2,0.7l5.8,3.4
				c0.2,0.2,0.6,0.1,0.7-0.1l3-4.3c0.1-0.2,0.4-0.3,0.6-0.2c0.8,0.3,1.7,0.5,2.5,0.7c0.2,0,0.4,0.2,0.4,0.5l0.5,5.3
				c0,0.3,0.3,0.5,0.5,0.5h6.7c0.3,0,0.5-0.2,0.5-0.5l0.5-5.3c0-0.2,0.2-0.4,0.4-0.5c0.9-0.2,1.7-0.4,2.5-0.7c0.2-0.1,0.4,0,0.6,0.2
				l3,4.3c0.2,0.2,0.5,0.3,0.7,0.1l5.8-3.4c0.2-0.1,0.3-0.4,0.2-0.7l-2.2-4.8c-0.1-0.2,0-0.5,0.1-0.6c0.7-0.6,1.3-1.2,1.9-1.8
				c0.2-0.2,0.4-0.2,0.6-0.1l4.8,2.2c0.2,0.1,0.5,0,0.7-0.2l3.4-5.8c0.2-0.2,0.1-0.6-0.1-0.7l-4.3-3.1c-0.2-0.1-0.3-0.4-0.2-0.6
				c0.3-0.8,0.5-1.7,0.7-2.6c0-0.2,0.2-0.4,0.5-0.4h4.6c0.3-0.1,0.5-0.2,0.5-0.5L58,28.7L58,28.7z"/>
			<polygon class="st0" points="57.6,29 57.6,29 57.6,29 57.6,29 			"/>
		</g>
		<g>
			
				<linearGradient id="SVGID_1_" gradientUnits="userSpaceOnUse" x1="31.1888" y1="14.1113" x2="31.1888" y2="53.4824" gradientTransform="matrix(1 0 0 -1 0 60)">
				<stop  offset="0" style="stop-color:#008145"/>
				<stop  offset="0.193" style="stop-color:#00924C"/>
				<stop  offset="0.432" style="stop-color:#3FA554"/>
				<stop  offset="0.6539" style="stop-color:#66B55A"/>
				<stop  offset="0.8501" style="stop-color:#7CC05F"/>
				<stop  offset="1" style="stop-color:#84C661"/>
			</linearGradient>
			<path class="st2" d="M30.5,6.5C30.2,6.5,30,6.7,30,7v4.4c0,0.3-0.3,0.6-0.6,0.6h-1.5c-5.1,0.2-9.5,2.6-12.6,6.2
				c-0.7,0.9-1.3,1.8-1.9,2.8c-0.5,1-1,2-1.3,3c-0.5,1.6-0.8,3.3-0.8,5l0,0l0,0l0,0c0,9.3,7.6,17,17,17l0,0l0,0l0,0
				c5.5,0,9.9-4.4,9.9-9.9c0-3.9-3.1-7.1-7.1-7.1c-2.8,0-4.9,2.3-4.9,4.9c0,1.9,1.5,3.3,3.3,3.3c1.1,0,2-0.8,2.2-1.8
				c0-0.2,0.3-0.4,0.5-0.3c1.5,0.3,2.2,2.2,1,3.3c-0.9,1-2.3,1.6-3.6,1.6c-3.4,0-6.2-2.8-6.2-6.2c0-4.3,3.5-7.8,7.8-7.8
				c2.6,0,4.8,1,6.6,2.6c0.2,0.2,0.6,0.3,0.9,0.3h11.7c0.3,0,0.6-0.3,0.5-0.6C50.7,16.8,41.8,7.5,30.5,6.5z M43.1,26.2
				c-1.7,0-3.2-1.4-3.2-3.2c0-1.7,1.4-3.2,3.2-3.2c1.7,0,3.2,1.4,3.2,3.2C46.2,24.8,44.8,26.2,43.1,26.2z"/>
		</g>
	</g>
</g>
</svg>
