<?xml version="1.0" encoding="utf-8"?>
<!-- Generator: Adobe Illustrator 22.1.0, SVG Export Plug-In . SVG Version: 6.00 Build 0)  -->
<svg version="1.1" id="Layer_1" xmlns="http://www.w3.org/2000/svg" xmlns:xlink="http://www.w3.org/1999/xlink" x="0px" y="0px"
	 viewBox="0 0 18 18" style="enable-background:new 0 0 18 18;" xml:space="preserve">
<style type="text/css">
	.st0{fill:#FFFFFF;stroke:#000000;stroke-width:0.75;stroke-miterlimit:10;}
	.st1{fill:#FFFFFF;stroke:#000000;stroke-width:0.5;stroke-miterlimit:10;}
</style>
<g>
	<path class="st0" d="M8.7,1C8.6,1,8.5,1,8.5,1v1.7v0.1H7.7C5.6,2.9,3.8,4.2,2.6,5.7C2.3,6,2,6.4,1.8,6.8C1.6,7.2,1.4,7.6,1.3,8
		C1.1,8.7,1,9.4,1,10.1l0,0l0,0C1,13.9,4.1,17,7.9,17l0,0l0,0l0,0c2.2,0,4-1.5,4-3.7c0-1.6-1.3-2.2-2.9-2.2c-1,0-1,0.7-1,0.8
		s0,0.8,1,0.8s1,1,0.8,1.3c-0.3,0.5-0.9,0.6-1.5,0.6c-1.4,0-2.5-1.1-2.5-2.5c0-1.7,1.4-3.2,3.2-3.2c2,0,3,0.8,3.7,1.5
		c0.1,0.1,0.2,0.1,0.4,0.1H17c0,0,0-0.1,0-0.2C16.9,5.6,13.9,1,8.7,1z"/>
	<circle class="st1" cx="13.6" cy="7.6" r="1.3"/>
</g>
</svg>
