<?xml version="1.0" encoding="utf-8"?>
<!-- Generator: Adobe Illustrator 22.0.1, SVG Export Plug-In . SVG Version: 6.00 Build 0)  -->
<svg version="1.1" id="Layer_1" xmlns="http://www.w3.org/2000/svg" xmlns:xlink="http://www.w3.org/1999/xlink" x="0px" y="0px"
	 viewBox="0 0 51.4 24" style="enable-background:new 0 0 51.4 24;" xml:space="preserve">
<style type="text/css">
	.st0{fill:none;}
</style>
<path class="st0" d="M0,0h24v24H0V0z"/>
<path d="M12,2C6.5,2,2,6.5,2,12s4.5,10,10,10c5.5,0,10-4.5,10-10S17.5,2,12,2z M18.9,8H16c-0.3-1.3-0.8-2.4-1.4-3.6
	C16.4,5.1,18,6.3,18.9,8z M12,4c0.8,1.2,1.5,2.5,1.9,4h-3.8C10.5,6.6,11.2,5.2,12,4z M4.3,14C4.1,13.4,4,12.7,4,12s0.1-1.4,0.3-2
	h3.4c-0.1,0.7-0.1,1.3-0.1,2s0.1,1.3,0.1,2H4.3z M5.1,16h3c0.3,1.2,0.8,2.4,1.4,3.6C7.6,18.9,6,17.7,5.1,16z M8,8h-3
	c1-1.7,2.5-2.9,4.3-3.6C8.8,5.5,8.4,6.7,8,8z M12,20c-0.8-1.2-1.5-2.5-1.9-4h3.8C13.5,17.4,12.8,18.8,12,20z M14.3,14H9.7
	c-0.1-0.7-0.2-1.3-0.2-2s0.1-1.4,0.2-2h4.7c0.1,0.6,0.2,1.3,0.2,2S14.4,13.3,14.3,14z M14.6,19.6c0.6-1.1,1.1-2.3,1.4-3.6h2.9
	C18,17.6,16.4,18.9,14.6,19.6z M16.4,14c0.1-0.7,0.1-1.3,0.1-2s-0.1-1.3-0.1-2h3.4c0.2,0.6,0.3,1.3,0.3,2s-0.1,1.4-0.3,2H16.4z" fill="white"/>
<path class="st0" d="M26,0h24v24H26V0z" fill="white"/>
<path d="M38.9,15.1l-2.5-2.5l0,0c1.7-1.9,3-4.2,3.7-6.5H43V4h-7V2h-2v2h-7v2h11.2c-0.7,1.9-1.7,3.8-3.2,5.4c-0.9-1-1.7-2.2-2.3-3.4
	h-2c0.7,1.6,1.7,3.2,3,4.6l-5.1,5L30,19l5-5l3.1,3.1C38.1,17.1,38.9,15.1,38.9,15.1z M44.5,10h-2L38,22h2l1.1-3h4.8l1.1,3h2L44.5,10
	z M41.9,17l1.6-4.3l1.6,4.3C45.1,17,41.9,17,41.9,17z" fill="white"/>
</svg>
