<?xml version="1.0" encoding="UTF-8" standalone="no"?>
<svg
   xmlns:dc="http://purl.org/dc/elements/1.1/"
   xmlns:cc="http://creativecommons.org/ns#"
   xmlns:rdf="http://www.w3.org/1999/02/22-rdf-syntax-ns#"
   xmlns:svg="http://www.w3.org/2000/svg"
   xmlns="http://www.w3.org/2000/svg"
   xmlns:sodipodi="http://sodipodi.sourceforge.net/DTD/sodipodi-0.dtd"
   xmlns:inkscape="http://www.inkscape.org/namespaces/inkscape"
   width="24"
   height="24"
   viewBox="0 0 24 24"
   version="1.1"
   id="svg3729"
   sodipodi:docname="mouse-swap-right.svg"
   inkscape:version="0.92.4 (5da689c313, 2019-01-14)">
  <metadata
     id="metadata3735">
    <rdf:RDF>
      <cc:Work
         rdf:about="">
        <dc:format>image/svg+xml</dc:format>
        <dc:type
           rdf:resource="http://purl.org/dc/dcmitype/StillImage" />
        <dc:title></dc:title>
      </cc:Work>
    </rdf:RDF>
  </metadata>
  <defs
     id="defs3733" />
  <sodipodi:namedview
     pagecolor="#ffffff"
     bordercolor="#666666"
     borderopacity="1"
     objecttolerance="10"
     gridtolerance="10"
     guidetolerance="10"
     inkscape:pageopacity="0"
     inkscape:pageshadow="2"
     inkscape:window-width="2560"
     inkscape:window-height="1377"
     id="namedview3731"
     showgrid="false"
     inkscape:zoom="21.043478"
     inkscape:cx="26.25"
     inkscape:cy="4.75"
     inkscape:window-x="-8"
     inkscape:window-y="-8"
     inkscape:window-maximized="1"
     inkscape:current-layer="g4584" />
  <path
     d="M0 0h24v24H0z"
     fill="none"
     id="path3725" />
  <g
     id="g4584"
     transform="translate(16.8,6.6247932)">
    <path
       style="fill:#002957;fill-opacity:1"
       id="path3727-2"
       d="m -3.8,-5.5897934 v 7.93 h 7 c 0,-4.08 -3.05,-7.44 -7,-7.93 z m -9,13.93 c 0,4.4200004 3.58,8.0000004 8,8.0000004 4.42,0 8,-3.58 8,-8.0000004 v -4 h -16 z m 7,-13.93 c -3.95,0.49 -7,3.85 -7,7.93 h 7 z"
       inkscape:connector-curvature="0" />
    <path
       inkscape:connector-curvature="0"
       id="path3737"
       d="m -12.785125,2.0327686 c 0.09382,-2.01838489 0.870806,-3.8285695 2.252894,-5.248677 1.187633,-1.2203041 2.642923,-1.9942364 4.330246,-2.3028519 0.150726,-0.027568 0.30023,-0.050124 0.332231,-0.050124 h 0.05818 v 3.9471074 3.9471075 h -3.4935729 -3.4935771 z"
       style="fill:none;fill-opacity:1;stroke-width:0.01983471" />
    <path
       sodipodi:nodetypes="cccc"
       inkscape:connector-curvature="0"
       d="m -3.8,-5.5897934 v 7.93 h 7 c 0,-4.08 -3.05,-7.44 -7,-7.93 z"
       id="path3741"
       style="fill:#84c661;fill-opacity:1" />
  </g>
</svg>
