<?xml version="1.0" encoding="UTF-8" standalone="no"?>
<svg
   xmlns:dc="http://purl.org/dc/elements/1.1/"
   xmlns:cc="http://creativecommons.org/ns#"
   xmlns:rdf="http://www.w3.org/1999/02/22-rdf-syntax-ns#"
   xmlns:svg="http://www.w3.org/2000/svg"
   xmlns="http://www.w3.org/2000/svg"
   xmlns:sodipodi="http://sodipodi.sourceforge.net/DTD/sodipodi-0.dtd"
   xmlns:inkscape="http://www.inkscape.org/namespaces/inkscape"
   width="24"
   height="24"
   viewBox="0 0 24 24"
   version="1.1"
   id="svg3729"
   sodipodi:docname="mouse-swap-left.svg"
   inkscape:version="0.92.4 (5da689c313, 2019-01-14)">
  <metadata
     id="metadata3735">
    <rdf:RDF>
      <cc:Work
         rdf:about="">
        <dc:format>image/svg+xml</dc:format>
        <dc:type
           rdf:resource="http://purl.org/dc/dcmitype/StillImage" />
        <dc:title />
      </cc:Work>
    </rdf:RDF>
  </metadata>
  <defs
     id="defs3733" />
  <sodipodi:namedview
     pagecolor="#ffffff"
     bordercolor="#666666"
     borderopacity="1"
     objecttolerance="10"
     gridtolerance="10"
     guidetolerance="10"
     inkscape:pageopacity="0"
     inkscape:pageshadow="2"
     inkscape:window-width="2560"
     inkscape:window-height="1377"
     id="namedview3731"
     showgrid="false"
     inkscape:zoom="50.416667"
     inkscape:cx="12"
     inkscape:cy="12"
     inkscape:window-x="-8"
     inkscape:window-y="-8"
     inkscape:window-maximized="1"
     inkscape:current-layer="g4584" />
  <path
     d="M0 0h24v24H0z"
     fill="none"
     id="path3725" />
  <g
     id="g4584"
     transform="translate(16.8,6.6247932)">
    <path
       style="fill:#002957;fill-opacity:1"
       id="path3727-2"
       d="m -3.7999985,-5.5897934 c 3.95000003,0.49 7,3.85 7,7.93 h -7 z"
       inkscape:connector-curvature="0"
       sodipodi:nodetypes="cccc" />
    <path
       inkscape:connector-curvature="0"
       id="path3737"
       d="m 3.1851265,2.0327686 c -0.09382,-2.01838489 -0.870806,-3.8285695 -2.25289397,-5.248677 -1.187633,-1.2203041 -2.64292303,-1.9942364 -4.33024603,-2.3028519 -0.150726,-0.027568 -0.30023,-0.050124 -0.332231,-0.050124 h -0.05818 v 3.9471074 3.9471075 h 3.49357293 3.49357707 z"
       style="fill:none;fill-opacity:1;stroke-width:0.01983471" />
    <path
       sodipodi:nodetypes="cccc"
       inkscape:connector-curvature="0"
       d="m -5.7999985,-5.5897934 v 7.93 h -6.9999995 c 0,-4.08 3.0499995,-7.44 6.9999995,-7.93 z"
       id="path3741"
       style="fill:#84c661;fill-opacity:1" />
    <path
       sodipodi:nodetypes="sssccs"
       inkscape:connector-curvature="0"
       d="m 3.2000015,8.3402066 c 0,4.4200004 -3.57999997,8.0000004 -8,8.0000004 -4.42,0 -7.9999995,-3.58 -7.9999995,-8.0000004 v -4 H 3.2000015 Z"
       id="path824"
       style="fill:#002957;fill-opacity:1" />
    <g
       id="g1408"
       transform="matrix(1.2691882,0,0,1.2691882,-1.0559909,0.2277834)">
      <g
         id="g1427"
         transform="matrix(1.1094652,0,0,1.1094652,0.58323897,0.0851934)">
        <path
           id="path1404"
           d="M -1.6617831,3.8510726 C -2.1002111,3.294005 -2.8466151,3.13258 -3.4582301,3.4215349 -3.7984579,3.0687057 -4.2720225,2.9157615 -4.7311373,2.980045 V 1.3238988 c 0,-0.83092348 -0.668814,-1.50693435 -1.4908757,-1.50693435 -0.8220688,0 -1.4908759,0.67601087 -1.4908759,1.50693435 V 4.9479427 C -8.1606723,4.7812825 -8.6861448,4.833374 -9.1092336,5.1474891 -9.7694752,5.6376908 -9.9142702,6.5719436 -9.4364863,7.2426204 l 2.4672997,3.4637276 c 0.2794157,0.392157 0.7317006,0.626297 1.2098443,0.626297 h 4.0099282 c 0.692789,0 1.294928,-0.483569 1.451993,-1.164992 l 0.61692,-2.676478 c 0.02581,-0.112158 0.03885,-0.2268747 0.03888,-0.3419636 V 5.2599271 c 0,-1.0535982 -1.048666,-1.7829775 -2.020144,-1.4088545 z"
           style="fill:#ffffff;stroke:#636464;stroke-width:0.61940515;stroke-miterlimit:4;stroke-dasharray:none;stroke-opacity:1;paint-order:normal"
           inkscape:connector-curvature="0"
           sodipodi:nodetypes="cccsssccccsscccscc" />
        <path
           sodipodi:nodetypes="sssssssssssssssssssssssssss"
           inkscape:connector-curvature="0"
           style="fill:#999999;fill-opacity:1;stroke-width:0.02453215"
           d="M -4.8653362,8.4541511 V 5.8261249 c 0,-0.2419131 0.1377985,-0.4380027 0.3077828,-0.4380027 h 0.1319019 c 0.1699843,0 0.3077828,0.1960896 0.3077828,0.4380027 v 2.6280262 c 0,0.241913 -0.1377985,0.4380032 -0.3077828,0.4380032 h -0.1319019 c -0.170005,0 -0.3077828,-0.1960902 -0.3077828,-0.4380032 z m 1.6582298,0 V 5.8261249 c 0,-0.2419131 0.1377984,-0.4380027 0.3077828,-0.4380027 h 0.1319088 c 0.1699774,0 0.307776,0.1960896 0.307776,0.4380027 v 2.6280262 c 0,0.241913 -0.1377986,0.4380032 -0.307776,0.4380032 h -0.1319088 c -0.1699844,0 -0.3077828,-0.1960902 -0.3077828,-0.4380032 z m 1.6582571,0 V 5.8261249 c 0,-0.2419131 0.1377986,-0.4380027 0.3077834,-0.4380027 h 0.1319017 c 0.169984,0 0.30778259,0.1960896 0.30778259,0.4380027 v 2.6280262 c 0,0.241913 -0.13779859,0.4380032 -0.30778259,0.4380032 h -0.1319017 c -0.1699848,0 -0.3077834,-0.1960902 -0.3077834,-0.4380032 z"
           id="path836" />
      </g>
    </g>
  </g>
</svg>